<svg xmlns="http://www.w3.org/2000/svg" viewBox="0 0 128 128">
<!-- SVG created with Arrow, by QuiverAI (https://quiver.ai) -->
  <style type="text/css">.cls-0 {fill:url(#SVGID_1_);stroke:#E38585;stroke-width:0.25;stroke-miterlimit:10;}
.cls-1 {fill:url(#SVGID_2_);}</style>
  <linearGradient id="SVGID_1_" x1="117.9" x2="10.03" y1="18.37" y2="89.01" gradientUnits="userSpaceOnUse">
    <stop stop-color="#FD9393" offset="0"/>
    <stop stop-color="#FF5F5F" offset="1"/>
  </linearGradient>
  <path class="cls-0" d="m64 21c-5.8-5.9-13.6-12.3-26.8-12.3-17.2 0-34.9 13.2-34.9 36.3 0 28.1 29.5 54.3 57.6 73 2.6 1.6 5.6 1.6 8.1 0.3 9.1-5.1 39.4-23.7 54.7-56 1.9-4.7 3.1-10.5 3.1-16.4 0-20.5-15.5-37.1-34.8-37.1-10.7 0-19.5 4.1-27 12.2z"/>
  <linearGradient id="SVGID_2_" x1="8.205" x2="119.5" y1="63.92" y2="63.92" gradientUnits="userSpaceOnUse">
    <stop stop-color="#FFC8C8" offset="0"/>
    <stop stop-color="#fff" offset=".4831"/>
    <stop stop-color="#FFD8D8" offset="1"/>
  </linearGradient>
  <path class="cls-1" d="m118.1 50.2-0.8-13.6c1.9-0.7 1.4-4.3-1.2-3.7l-6.4-8.9c1.5-2.5-1.6-4.6-3.2-2.7l-10.5-4.7c0.3-2.5-3.9-3.3-4-0.4l-12.4 2.7c-1.1-2-4.6-1.1-3.7 1.9l-11 10.7c-0.6-0.4-1.5-0.4-2 0l-10.8-10.7c1.1-2.7-2.7-4.3-3.7-1.9l-12.3-2.7c-0.1-2.4-4.2-3.2-4.2 0.4l-10.3 4.6c-1.8-1.5-4.8 0.2-3.3 2.9l-6.4 8.8c-2.4-0.5-3.6 2.9-1.4 3.7l-0.8 13.4c-2.3 0.5-1.9 4.7 0.8 4.1l10.9 20.7c-0.9 1.8 0.2 4.2 2.2 3.4l11.3 11c-0.9 2.3 1.6 4.1 3 3.1l24 17.7c-0.5 2.7 4 3.8 4 0.1l24.2-17.8c1.4 1 4.2 0.2 3.2-2.9l10.8-11.2c1.8 0.8 4.2-0.4 2.6-3.4l10.7-20.6c2.1 0.2 3.1-2.7 0.7-4zm-2-0.3-2.2-5c0.7-0.7 0.7-2.3 0.1-3.3l2.3-4.9 0.7 13.2h-0.9zm-11.2 24.4-7.4-12.7 0.3-0.7 5.3 0.9c0.1 1.1 0.8 1.7 1.5 1.8v10.7h0.3zm-23 2.3 12.8-14.5-2 14.3-10.8 0.2zm-16 9.8-0.7-0.2v-21.9l13 12.1c-0.3 0.4-0.3 0.9-0.1 1.5l-12.2 8.5zm-16-9.3 13-12.8 0.3-0.4v22.3l-0.7 0.2-12.6-9v-0.3zm-14.8-1.1-1.9-13.9 12.9 13.6-0.1 0.3h-10.9zm-10.8-0.8 7.6-13.1 2.1 13.8h-9.3c0-0.2-0.2-0.4-0.4-0.7zm-2.2-1.1-10.5-20.3 9.4 6.9c-0.5 1.1 0.1 2.7 1.2 2.9l-0.1 10.5zm-10.5-37.4 2.7 4.9c-0.6 1-0.7 2.2 0 3.1l-3.6 5.3 0.9-13.3zm7.8-12c0.4 0.1 0.7 0.1 1.2 0l2.6 4.9c-0.3 0.4-0.5 1-0.5 1.5l-9.8 2.7-0.2-0.4 6.7-8.7zm13.1-7-7.1 11.5c-0.4-0.1-0.7 0-0.9 0l-3.1-5.1c0.5-0.5 0.5-1.1 0.5-1.8l10.6-4.6zm15.5 2v0.3l-11.1 5.2-1.8-7.1c0.4-0.1 0.8-0.7 1-0.8l11.9 2.4zm13.9 12.4c-0.1 0.5-0.1 0.8-0.1 1.1l-16.4 4.8-0.7-0.6 5.5-15.6c0.4 0.1 1 0.1 1.6-0.3l10.3 10.6h-0.2zm24.2 5.5 5.5-11 9.6 4.4 0.2 0.6-15 6.3-0.3-0.3zm-6.5-17.6 12.4-2.7c0.3 0.4 0.5 0.7 0.9 0.9l-1.9 7-11.4-5.2zm26.8 2.3c-0.3 0.7 0 1.5 0.2 1.8l-2.8 5.1c-0.3-0.1-0.6 0-1 0l-7.2-11.5 10.8 4.6zm8.7 11.3-9.7-2.5c0.1-0.5-0.2-1.1-0.5-1.5l2.6-4.8c0.4 0 0.8 0 1.3-0.1l6.4 8.9h-0.1zm-10.2-1.2 9.7 2.3c-0.1 0.7 0.4 1.3 0.8 1.7l-2.7 4.7c-0.4-0.1-0.8-0.1-1.1 0l-6.7-8.7zm-1 0.5 6.9 8.7c-0.5 0.8-0.7 2-0.2 2.7l-13.7 13.8 6.3-25.2h0.7zm-17.5 7.6c0.2-0.5 0.5-1.1 0.2-1.9l15-6 0.3 0.4-6.3 25.1-9.2-17.6zm7.7 17.9-11.1-7.4 1.9-9.6h0.3l9.1 17h-0.2zm-12 2.2 0.8-8.4 10.9 7.2 0.1 0.3-11.8 0.9zm-1 0-15.2 1.2-0.2-0.4 10.9-11.7c0.8 0.3 1.6 0.3 2.3-0.3l3 2-0.8 9.2zm-5.2-11.8-11.3 12.1v-26.2l11.3 11.7c-0.4 0.7-0.3 1.7 0 2.4zm-13.8 13-15-1.2-0.9-9.2 2.9-2c0.8 0.6 1.6 0.6 2.3 0.2l10.7 11.8v0.4zm-16.2-1.3-11.8-0.9v-0.5l11-7 0.8 8.4zm-12-2.4 9-16.7h0.2l1.9 9.3-11.1 7.4zm-1.4 0-6.8-25.5 15.7 6.2c0 0.8 0.2 1.4 0.5 1.8l-9.4 17.5zm-6-27.5 9.9-4 5.5 11-0.3 0.3-15-6.5-0.1-0.8zm-0.1-1.4 7.1-11 0.5 0.2 2 7.1-9.6 4.1v-0.4zm17 8.2-6-11.3 11.1-5 0.1 0.3-5.2 16zm2.1 1.6 16.6-4.7-11 11.3c-0.4-0.2-1.1-0.2-1.6 0l-4-5.2c0.1-0.4 0.1-1 0-1.4zm-1 2.4 4.1 4.8c-0.4 0.4-0.4 1.3-0.1 2l-2.6 1.8-1.4-8.6zm1.6 20.2 1 13.1-13.1-14h0.1l12 0.9zm-0.1 15.6c0 0.4 0.1 0.6 0.4 0.9l-9 10.3-0.4-0.3-1.6-11 10.6 0.1zm1.1 1.3c0.4 0.1 0.6 0.1 1 0l5.8 14.5c-0.3 0.2-0.5 0.6-0.7 0.9l-14.7-3.4c0-0.4-0.1-1-0.4-1.4l9-10.6zm2.3-0.1 12.5 8.8c-0.1 0.4 0 1.3 0 1.7l-5.4 4.5c-0.4-0.4-1-0.7-1.6-0.7l-5.5-14.3zm13.1 11.7 0.7 0.3v18.2l-6.6-12.2c0.4-0.5 0.6-1.5 0.3-2l5.6-4.3zm2 0.3 0.7-0.3 5.8 4.4c-0.3 0.9 0 1.7 0.2 2.1l-6.7 12v-18.2zm8.4 3c-0.4 0-0.9 0.2-1.3 0.5l-5.9-4.8c0.2-0.5 0.2-1 0-1.5l12.8-8.6-5.4 14.4h-0.2zm7-14c0.2 0 0.6 0 0.7-0.3l8.9 10c-0.1 0.3-0.1 0.8-0.1 1l-14.7 4c-0.1-0.2-0.3-0.5-0.6-0.7l5.8-14zm1.7-0.8c0.1-0.2 0.3-0.5 0.3-0.8l10.7-0.4-1.6 10.7-0.6 0.3-8.8-9.8zm12.2-1.2 9.6-0.3 0.2 0.4-11.2 10.9 1.4-11zm9.6-1.4-9.6 0.4 2.3-14.2 7.8 12.9c-0.3 0.3-0.5 0.6-0.5 0.9zm-22.4-14.4-1.5 13.9c-0.3 0-0.4 0.2-0.6 0.2l-13-12.1v-0.5l15.1-1.5zm12.9-0.9 0.2 0.3-13.4 14.7 1.4-14.1 11.8-0.9zm-17-39.1c0.3 0.3 0.7 0.3 1 0.3l5.7 15.6-0.6 0.4-17.1-4.8-0.2-1 11.2-10.5zm-14.8 13.3h1v26l-10.9-12.3c0.3-0.6 0.4-1.6-0.1-2.2l11-11.5h-1zm-38.9-2.5-6.8 8.7c-0.3-0.1-0.5-0.1-0.9 0l-2.8-4.7c0.5-0.5 0.8-1 0.7-1.7l9.7-2.6 0.1 0.3zm-5.8 9.7 6.5-9.1h0.7l6.6 25.4-13.7-13.8c0.4-0.7 0.4-1.7-0.1-2.5zm-1.9 3.5c0.1 0.1 0.6 0.1 0.6 0l5.4 14.1-9.6-6.7c0.3-0.6 0.2-1.5-0.3-2.3l3.5-5.1h0.4zm9.1 15.1c-0.5-0.8-1.4-1.5-2.2-1.1l-5.5-14 13.8 13.3-0.2 1-5.9 0.8zm-1.1 2.9c1 0 1.2-1 1.2-1.7l6-1 0.3 0.7-7.6 12.7v-10.7h0.1zm1 13.5h9.7l1.7 11.3-0.3 0.2-11.2-11.1 0.1-0.4zm14.1 14.5 14.5 3.4c0.3 1.5 1.5 2.1 2.4 1.9l6.6 11.7-23.5-17zm27 17.3 6.8-11.8c1.1 0.4 2.7-0.5 2.6-1.7l14.4-3.8-23.8 17.3zm31.9-47.3zm0-2.6 13.5-13.5-5.6 14.1c-0.9-0.4-1.9 0.3-2.2 1.1l-5.3-0.8-0.4-0.9zm9 0.9 5.9-14.4c0.2 0 0.6-0.1 0.6-0.1l3.1 5.2c-0.4 0.6-0.4 1.4-0.2 2.3l-9.4 7zm-0.9 14.2 0.1-10.5c1.2-0.2 1.9-1.5 1.3-2.7l9.1-6.8-10.5 20zm-4.2-44.5-9.3-4.1 2-7.1 0.5-0.2 7 11-0.2 0.4zm-16.8 7.8-5.7-16 0.6-0.2 11.1 4.9-5.7 11.3h-0.3zm-1.1 4-1.4 9-2.7-2c0.2-0.5 0.1-1.4 0-2l4.1-5zm-6.9 4.2-10.7-11.3 16.6 4.6c0.1 0.5 0.1 1 0.1 1.5l-4.2 5.2c-0.5-0.2-1.2-0.2-1.8 0z"/>
</svg>